<?xml version="1.0" encoding="UTF-8" standalone="no"?>
<!-- Created with Inkscape (http://www.inkscape.org/) -->

<svg
   width="341.358"
   height="341.358"
   id="svg2"
   inkscape:version="1.2.2 (b0a84865, 2022-12-01)"
   version="1.0"
   inkscape:output_extension="org.inkscape.output.svg.inkscape"
   inkscape:export-filename="C:\LIN\PROJECT\wk2008\MyMotudo\OpenClipArt\foo.png"
   inkscape:export-xdpi="90"
   inkscape:export-ydpi="90"
   sodipodi:version="0.32"
   sodipodi:docname="icon.svg"
   style="display:inline"
   xmlns:inkscape="http://www.inkscape.org/namespaces/inkscape"
   xmlns:sodipodi="http://sodipodi.sourceforge.net/DTD/sodipodi-0.dtd"
   xmlns="http://www.w3.org/2000/svg"
   xmlns:svg="http://www.w3.org/2000/svg"
   xmlns:rdf="http://www.w3.org/1999/02/22-rdf-syntax-ns#"
   xmlns:cc="http://creativecommons.org/ns#"
   xmlns:dc="http://purl.org/dc/elements/1.1/">
  <sodipodi:namedview
     inkscape:window-height="847"
     inkscape:window-width="1428"
     inkscape:pageshadow="2"
     inkscape:pageopacity="0.0"
     guidetolerance="10.0"
     gridtolerance="10.0"
     objecttolerance="10.0"
     borderopacity="1.0"
     bordercolor="#666666"
     pagecolor="#ffffff"
     id="base"
     showgrid="false"
     inkscape:zoom="1.1196396"
     inkscape:cx="168.35775"
     inkscape:cy="99.585617"
     inkscape:window-x="0"
     inkscape:window-y="25"
     inkscape:current-layer="layer2"
     inkscape:window-maximized="0"
     inkscape:showpageshadow="2"
     inkscape:pagecheckerboard="0"
     inkscape:deskcolor="#d1d1d1" />
  <defs
     id="defs4">
    <rect
       x="97.190937"
       y="80.862859"
       width="127.51451"
       height="51.316815"
       id="rect2505" />
    <inkscape:perspective
       sodipodi:type="inkscape:persp3d"
       inkscape:vp_x="0 : 170.45207 : 1"
       inkscape:vp_y="0 : 1000 : 0"
       inkscape:vp_z="228.36334 : 170.45207 : 1"
       inkscape:persp3d-origin="114.18167 : 113.63477 : 1"
       id="perspective14" />
    <inkscape:perspective
       id="perspective2841"
       inkscape:persp3d-origin="0.5 : 0.33351644 : 1"
       inkscape:vp_z="1 : 0.50018311 : 1"
       inkscape:vp_y="0 : 1000 : 0"
       inkscape:vp_x="0 : 0.50018311 : 1"
       sodipodi:type="inkscape:persp3d" />
    <inkscape:perspective
       id="perspective2895"
       inkscape:persp3d-origin="0.5 : 0.33351644 : 1"
       inkscape:vp_z="1 : 0.50018311 : 1"
       inkscape:vp_y="0 : 1000 : 0"
       inkscape:vp_x="0 : 0.50018311 : 1"
       sodipodi:type="inkscape:persp3d" />
  </defs>
  <metadata
     id="metadata7">
    <rdf:RDF>
      <cc:Work
         rdf:about="">
        <dc:format>image/svg+xml</dc:format>
        <dc:type
           rdf:resource="http://purl.org/dc/dcmitype/StillImage" />
        <cc:license
           rdf:resource="http://creativecommons.org/publicdomain/zero/1.0/" />
        <dc:creator>
          <cc:Agent>
            <dc:title>motudo</dc:title>
          </cc:Agent>
        </dc:creator>
      </cc:Work>
      <cc:License
         rdf:about="http://creativecommons.org/publicdomain/zero/1.0/">
        <cc:permits
           rdf:resource="http://creativecommons.org/ns#Reproduction" />
        <cc:permits
           rdf:resource="http://creativecommons.org/ns#Distribution" />
        <cc:permits
           rdf:resource="http://creativecommons.org/ns#DerivativeWorks" />
      </cc:License>
    </rdf:RDF>
  </metadata>
  <g
     inkscape:groupmode="layer"
     id="layer2"
     inkscape:label="draw"
     style="display:inline"
     transform="translate(-87.30339,-42.822586)">
    <g
       id="g2879"
       transform="translate(60.068966,0.89655174)">
      <path
         style="fill:#53676c;fill-opacity:1;fill-rule:evenodd;stroke:none"
         d="m 100.61792,150.1485 c 7.73798,-11.17267 13.67051,-23.31717 12.97734,-37.03452 -1.01553,-20.096826 3.33367,-42.296125 16.69353,-56.835728 8.38442,-9.124806 22.01573,-13.194547 34.65737,-13.450359 12.64164,-0.255812 24.23744,8.789175 18.96587,15.683838 -5.34743,6.993877 -2.95963,13.976155 -1.1859,15.386188 5.90356,4.693056 -4.76434,12.241328 -8.88441,17.983308 -4.73349,6.596879 -8.08962,14.459303 -4.59776,22.543733 6.07454,14.06391 15.10616,26.45619 23.75091,38.53705 6.46555,9.03547 0.66824,13.03432 -7.5027,19.22566 -21.54355,16.32412 -21.65445,41.40074 -10.34236,62.92634 22.59203,39.08063 54.05101,40.84508 93.19573,49.86916 11.32301,2.12792 23.74721,1.74278 30.208,12.39442 3.28526,5.41628 21.39894,23.43463 9.91349,15.75273 -25.84701,-17.28744 -31.22495,-4.01971 -39.32781,-6.19459 -12.69123,-3.40643 -22.84564,-15.97259 -34.98602,-19.0462 -6.84209,-1.73223 -21.88276,3.24858 -15.36781,16.06425 6.25271,12.29982 -3.63573,28.92365 -8.76922,42.24355 -5.18129,13.44392 9.08973,7.47363 9.58968,9.8975 0.31155,1.51047 -12.78563,3.69875 -9.72095,17.20146 1.35028,5.94918 -0.5841,11.00952 -2.38372,10.85997 -7.30444,-0.60701 0.18866,-21.98769 -14.25333,-14.24459 -7.2932,3.91027 -33.33197,10.46974 -28.2277,4.53972 3.94797,-4.58666 34.70403,-12.04144 10.06881,-9.78591 -10.3035,0.94336 -21.4324,-8.15959 -6.45316,-5.65765 11.6201,1.94088 32.3171,5.87372 33.41902,-11.69925 0.8213,-13.09784 0.85962,-22.43365 -8.18043,-33.27691 -3.51993,-4.22205 -3.83745,-11.92694 -5.25739,-18.19892 -4.62664,-15.89838 -20.55312,-13.577 -17.11064,5.33505 1.42364,7.17576 3.0554,15.26629 -3.98993,20.42518 -7.25449,5.31204 -19.86284,26.99299 -5.47018,28.78374 5.13674,0.63912 22.74511,0.11114 9.82327,3.90664 -8.58838,2.52264 -25.09997,-1.23063 -16.79807,13.01033 8.33714,14.30141 -4.78154,2.9814 -7.54762,-4.87597 -2.87808,-8.1755 -24.72434,7.64896 -36.0082,8.57579 -13.070587,1.07359 4.65838,-11.6648 12.17802,-10.793 9.17266,1.06344 10.88054,-9.23822 0.48817,-3.8595 -6.71359,3.47471 -29.140494,-4.16122 -17.66708,-6.91071 10.0886,-2.41763 28.28234,6.48536 36.23001,-1.62539 10.32235,-10.53416 8.45462,-26.37681 3.83342,-41.30442 -4.65323,-15.0311 -8.87591,-30.33799 -20.84873,-41.25782 C 91.75926,234.26013 72.99818,190.02791 100.61792,150.1485 Z"
         id="path2420"
         sodipodi:nodetypes="csasssssssccsssssssssssssssccsssssssssssss" />
      <path
         sodipodi:nodetypes="csssssss"
         style="fill:#d4aa00;fill-opacity:1;fill-rule:evenodd;stroke:none"
         d="m 187.60987,76.150124 c -4.73251,-2.941232 -6.4298,-10.252792 -2.25668,-14.552565 0.98356,-1.013409 2.63931,-1.113152 3.86636,-0.395536 2.0699,1.210538 3.28909,3.65942 5.59443,4.40791 6.03659,1.959939 8.78824,5.958329 12.45879,10.460796 1.86337,2.285693 1.49972,4.733162 -1.6719,3.736792 -3.59256,-1.128607 -6.85626,-2.952882 -10.65578,-3.330789 -2.47865,-0.246531 -5.23234,0.980324 -7.33522,-0.326608 z"
         id="path3194" />
      <path
         sodipodi:nodetypes="csccsssssssssss"
         style="fill:#1c2224;fill-opacity:1;fill-rule:evenodd;stroke:none"
         d="m 195.1031,169.60727 c -9.69657,9.74986 -21.1592,13.2089 -23.02497,34.04383 -1.236,13.80233 6.6601,29.30989 17.52749,41.98547 12.04527,15.05555 25.12152,23.26746 43.41806,27.78253 4.09835,0.86613 9.58348,1.00633 9.76696,-2.30179 0.3853,-6.94701 8.29538,-5.85516 11.96353,-8.16334 5.67083,-3.56835 -1.88795,-13.08935 2.14903,-15.45901 4.18205,-2.45481 5.80279,-7.27659 2.9221,-10.12313 -11.92859,-11.78718 1.06457,-1.45601 -8.62433,10.6745 -7.53662,9.43587 -15.72437,17.93097 -28.50481,16.12719 -16.31646,-2.30283 9.96539,-19.32224 -4e-4,-8.62316 -5.17304,5.55368 9.57105,3.69914 16.99949,-2.79396 7.42843,-6.4931 12.14359,-16.49373 9.78608,-22.4918 -7.75299,-19.72549 -24.17179,-64.25691 -41.2004,-72.70316 -19.70973,-9.7761 -1.09792,-0.10049 -13.17783,12.04583 z"
         id="path3196" />
      <path
         style="fill:#2b0022;fill-opacity:1;fill-rule:evenodd;stroke:none"
         d="m 288.21665,280.39859 c 1.73937,-1.78317 -0.13242,-3.70268 -1.30319,-4.94197 -2.1704,-2.29742 0.67267,-3.94178 2.86266,-3.15367 2.68255,0.96537 3.17773,-2.04041 2.3591,-3.93568 -1.68477,-3.90055 -5.63153,-6.00626 -9.21124,-8.30408 -16.10704,-10.33911 1.44538,2.27748 -1.04973,9.49162 -3.20656,9.27118 -17.38145,8.9351 -24.4173,4.01993 -5.53735,-3.86833 3.47829,-9.65183 5.35277,-4.24747 1.77713,5.12369 10.22607,2.42535 13.19135,-0.83332 1.72412,-1.89471 0.90954,-5.393 -0.23912,-7.68151 -3.20716,-6.38972 -6.51708,-13.0204 -11.34991,-18.35679 -1.31994,-1.45747 -3.04597,0.99786 -1.98478,2.19946 1.22676,1.38908 5.61504,8.80855 -0.98375,4.27823 -2.60798,-1.79048 -4.49119,1.69548 -3.50329,3.95786 2.18306,4.99942 1.57365,12.0517 -2.96893,12.89257 -9.74122,1.80319 -9.83959,5.19179 -8.46471,8.45145 0.72765,1.72517 8.59372,5.18814 17.18116,6.02383 5.23962,0.5099 10.83053,-1.55378 14.76086,-0.006 4.81537,1.89592 6.67107,3.32083 9.76805,0.14586 z"
         id="path3198"
         sodipodi:nodetypes="cssssssssssssssssssc" />
      <path
         sodipodi:nodetypes="csssssss"
         style="fill:#ff6600;fill-opacity:1;fill-rule:evenodd;stroke:none"
         d="m 153.57722,67.120238 c 3.08936,0.720284 6.83371,0.888689 9.47727,-0.864749 2.36904,-1.571353 4.04077,-4.680293 4.01722,-7.522993 -0.0259,-3.125218 -1.97306,-6.432234 -4.5529,-8.196341 -2.18744,-1.49578 -5.44194,-2.122319 -7.87667,-1.076208 -3.81837,1.640612 -6.91386,5.982797 -7.27843,10.122686 -0.1716,1.948639 1.22913,3.838601 2.54048,5.290153 0.96221,1.065082 2.27517,1.92154 3.67303,2.247452 z"
         id="path3200" />
      <path
         sodipodi:nodetypes="cssss"
         style="fill:#000000;fill-opacity:1;fill-rule:evenodd;stroke:none"
         d="m 151.92393,57.970604 c 0.16101,-2.368871 3.20201,-5.21728 5.57598,-5.175586 2.64433,0.04644 5.49736,2.943174 5.63629,5.58426 0.14121,2.684213 -2.75635,5.810298 -5.44426,5.816354 -3.02262,0.0068 -5.97299,-3.209367 -5.76801,-6.225028 z"
         id="path3202" />
    </g>
    <path
       style="fill:#c4c4c4;stroke:none;stroke-width:1px;stroke-linecap:butt;stroke-linejoin:miter;stroke-opacity:1;fill-opacity:1"
       d="M 168.94378,80.921433 V 211.15729 h 164.0583 V 117.07646 L 296.2639,80.338288 Z"
       id="path2449" />
    <path
       style="fill:#666666;stroke-width:1.00157"
       id="path1025"
       d="m 240.77369,124.88792 c -1.61418,2.58156 -3.68186,4.83644 -5.83267,6.97565 -2.42967,2.28954 -4.92164,4.49188 -7.30001,6.83749 -1.97264,2.11433 -3.68878,4.45805 -5.62625,6.59646 -1.16168,1.55352 -2.44869,2.98645 -3.38329,4.69189 -1.38743,1.67025 -2.6086,3.45635 -3.83209,5.24727 -1.31187,1.7267 -2.68033,3.399 -3.99768,5.1195 -1.62725,1.88657 -3.0717,3.91601 -4.66272,5.83241 -1.34534,1.43892 -1.94439,3.36395 -3.01063,4.95839 -0.79628,1.54458 -1.47225,3.11165 -2.37939,4.60778 -0.0989,0.25632 -0.38368,0.50839 -0.29661,0.76895 0.87149,2.60813 5.81517,2.0841 7.74929,2.11924 1.97882,0.036 6.77394,-0.003 8.76691,-0.0147 4.71247,-0.0281 9.42502,-0.0466 14.13733,-0.0961 3.17646,-0.0819 6.35343,-0.10884 9.53083,-0.1178 2.95842,10e-4 5.91668,0.0265 8.87498,0.0504 2.8689,-0.188 5.71961,-0.5576 8.59188,-0.73406 2.50255,-0.0737 4.99399,-0.11955 7.48221,-0.40537 1.39005,-0.0621 2.77935,0.0884 4.16514,0.18404 1.63902,0.0868 3.28163,0.066 4.92237,0.0898 7.24953,0.17782 1.59733,0.66535 15.62542,-7.6278 -0.45518,-2.23192 -2.30144,-4.75309 -3.59249,-6.62045 -1.96877,-2.58558 -3.67258,-5.34232 -5.38585,-8.09676 -0.97049,-1.38783 -1.49157,-3.00406 -2.19723,-4.52712 -0.96796,-1.81674 -1.99637,-3.60179 -3.23967,-5.24418 -1.16051,-1.434 -2.20774,-2.98033 -3.48504,-4.3152 -0.69904,-0.71139 -1.298,-1.50847 -1.95175,-2.25966 -0.74223,-0.62149 -1.46684,-1.23705 -2.12792,-1.94508 -0.62833,-0.79444 -1.37614,-1.48511 -2.00668,-2.27553 -0.55771,-0.84784 -1.07794,-1.72241 -1.67015,-2.54579 -0.81413,-1.16868 -1.92689,-2.07297 -2.86174,-3.1453 -1.19252,-0.92855 -1.77467,-2.29932 -2.62258,-3.48589 -0.50448,-0.62888 -0.81592,-1.362 -1.18558,-2.07056 -0.30321,-0.7657 -0.75785,-1.43038 -1.29268,-2.05388 -0.12006,-0.21001 -0.15197,-0.44953 -0.15937,-0.68703 -0.27218,-0.43335 -0.5684,-0.8381 -0.75358,-1.3343 -0.44434,-0.80095 -1.06036,-1.48241 -1.64301,-2.18295 -0.47704,-0.61369 -1.118,-1.04907 -1.67628,-1.57159 -0.0611,-0.0661 -0.12214,-0.13222 -0.1832,-0.19832 0,0 -12.85067,7.8108 -12.85067,7.8108 v 0 c 0.0765,0.0819 0.15307,0.16376 0.2296,0.24564 0.53042,0.54483 1.13494,0.89405 1.62266,1.49283 0.51303,0.53416 1.03537,1.08302 1.37295,1.74931 0.0871,0.19769 0.86125,1.44249 0.53258,0.99333 -0.0187,-0.0255 0.0184,0.0606 0.0276,0.0908 0.15434,0.50231 0.34551,0.99376 0.63497,1.43602 0.52906,0.46468 0.8418,1.00544 1.11815,1.65072 0.41124,0.79254 0.73249,1.61972 1.33297,2.30158 0.97758,1.09594 1.49705,2.59673 2.74123,3.48329 0.88072,1.0734 1.91021,2.0081 2.72666,3.12005 0.62551,0.79501 1.08649,1.72136 1.69536,2.53419 0.61347,0.85981 1.37,1.59486 2.05986,2.39373 0.62004,0.72511 1.27529,1.48194 2.09314,1.96675 0.69831,0.76068 1.36365,1.55198 2.08323,2.29352 1.31165,1.193 2.3091,2.73216 3.45089,4.0787 1.17023,1.55802 2.12963,3.25778 3.01697,4.99085 0.70255,1.60568 1.27801,3.28702 2.39583,4.66907 1.81178,2.70539 3.63033,5.40485 5.49937,8.07131 0.31186,0.46692 2.87374,4.65612 2.642,4.97049 -0.0513,0.0696 -0.17283,-0.002 -0.25925,-0.003 4.20874,-2.41437 8.38924,-4.87864 12.62622,-7.24311 0.10414,-0.0581 -0.0838,0.24914 -0.19012,0.30309 -0.56724,0.28767 -1.54259,-0.21238 -2.13376,0.0323 -1.61303,0.0115 -3.22629,-0.004 -4.83856,-0.0578 -1.44193,-0.0561 -2.8772,-0.19157 -4.31771,-0.27114 -1.11104,-3.7e-4 -2.09269,0.29276 -3.19562,0.38443 -1.47235,0.12236 -2.96585,0.002 -4.43859,0.13653 -2.82682,0.11735 -5.65372,0.28579 -8.45189,0.72637 -3.0043,0.0216 -6.00856,0.0437 -9.01295,0.0476 -3.1468,-0.003 -6.29435,-0.0447 -9.44066,0.006 -4.92256,0.2004 -9.84096,0.50898 -14.76813,0.58846 -3.25668,0.0317 -5.34009,0.0877 -8.58905,-0.0215 -1.17742,-0.0396 -2.35295,-0.124 -3.52872,-0.1979 -0.66836,-0.042 -1.33488,-0.18856 -2.00343,-0.14981 -0.10078,0.006 -0.17851,0.36208 -0.13012,0.27348 0.10877,-0.19919 0.20761,-0.40364 0.31142,-0.60546 0.83299,-1.53782 1.54895,-3.13274 2.43061,-4.64478 0.7937,-1.68729 1.81676,-3.23672 2.9993,-4.67986 1.55012,-1.96284 3.06539,-3.95171 4.66549,-5.87483 1.32683,-1.72177 2.74192,-3.37761 3.95173,-5.18737 1.24232,-1.80798 2.65325,-3.48968 3.84445,-5.33095 1.0694,-1.54093 2.27345,-2.98815 3.43011,-4.46395 1.77507,-2.21503 3.60163,-4.39591 5.57964,-6.43362 2.38238,-2.31889 4.91957,-4.46882 7.24004,-6.85162 2.15502,-2.29285 4.16008,-4.69546 6.04077,-7.21801 0,0 -13.73676,5.86887 -13.73676,5.86887 z" />
  </g>
</svg>
