<?xml version="1.0" encoding="UTF-8" standalone="no"?>
<!-- Created with Inkscape (http://www.inkscape.org/) -->

<svg
   width="341.358"
   height="341.358"
   id="svg2"
   inkscape:version="1.2.2 (b0a84865, 2022-12-01)"
   version="1.0"
   inkscape:output_extension="org.inkscape.output.svg.inkscape"
   inkscape:export-filename="C:\LIN\PROJECT\wk2008\MyMotudo\OpenClipArt\foo.png"
   inkscape:export-xdpi="90"
   inkscape:export-ydpi="90"
   sodipodi:version="0.32"
   sodipodi:docname="icon.svg"
   style="display:inline"
   xmlns:inkscape="http://www.inkscape.org/namespaces/inkscape"
   xmlns:sodipodi="http://sodipodi.sourceforge.net/DTD/sodipodi-0.dtd"
   xmlns="http://www.w3.org/2000/svg"
   xmlns:svg="http://www.w3.org/2000/svg"
   xmlns:rdf="http://www.w3.org/1999/02/22-rdf-syntax-ns#"
   xmlns:cc="http://creativecommons.org/ns#"
   xmlns:dc="http://purl.org/dc/elements/1.1/">
  <sodipodi:namedview
     inkscape:window-height="847"
     inkscape:window-width="1428"
     inkscape:pageshadow="2"
     inkscape:pageopacity="0.0"
     guidetolerance="10.0"
     gridtolerance="10.0"
     objecttolerance="10.0"
     borderopacity="1.0"
     bordercolor="#666666"
     pagecolor="#ffffff"
     id="base"
     showgrid="false"
     inkscape:zoom="1.1196396"
     inkscape:cx="150.49486"
     inkscape:cy="84.40216"
     inkscape:window-x="0"
     inkscape:window-y="25"
     inkscape:current-layer="layer2"
     inkscape:window-maximized="0"
     inkscape:showpageshadow="2"
     inkscape:pagecheckerboard="0"
     inkscape:deskcolor="#d1d1d1" />
  <defs
     id="defs4">
    <rect
       x="97.190937"
       y="80.862859"
       width="127.51451"
       height="51.316815"
       id="rect2505" />
    <inkscape:perspective
       sodipodi:type="inkscape:persp3d"
       inkscape:vp_x="0 : 170.45207 : 1"
       inkscape:vp_y="0 : 1000 : 0"
       inkscape:vp_z="228.36334 : 170.45207 : 1"
       inkscape:persp3d-origin="114.18167 : 113.63477 : 1"
       id="perspective14" />
    <inkscape:perspective
       id="perspective2841"
       inkscape:persp3d-origin="0.5 : 0.33351644 : 1"
       inkscape:vp_z="1 : 0.50018311 : 1"
       inkscape:vp_y="0 : 1000 : 0"
       inkscape:vp_x="0 : 0.50018311 : 1"
       sodipodi:type="inkscape:persp3d" />
    <inkscape:perspective
       id="perspective2895"
       inkscape:persp3d-origin="0.5 : 0.33351644 : 1"
       inkscape:vp_z="1 : 0.50018311 : 1"
       inkscape:vp_y="0 : 1000 : 0"
       inkscape:vp_x="0 : 0.50018311 : 1"
       sodipodi:type="inkscape:persp3d" />
  </defs>
  <metadata
     id="metadata7">
    <rdf:RDF>
      <cc:Work
         rdf:about="">
        <dc:format>image/svg+xml</dc:format>
        <dc:type
           rdf:resource="http://purl.org/dc/dcmitype/StillImage" />
        <cc:license
           rdf:resource="http://creativecommons.org/publicdomain/zero/1.0/" />
        <dc:creator>
          <cc:Agent>
            <dc:title>motudo</dc:title>
          </cc:Agent>
        </dc:creator>
      </cc:Work>
      <cc:License
         rdf:about="http://creativecommons.org/publicdomain/zero/1.0/">
        <cc:permits
           rdf:resource="http://creativecommons.org/ns#Reproduction" />
        <cc:permits
           rdf:resource="http://creativecommons.org/ns#Distribution" />
        <cc:permits
           rdf:resource="http://creativecommons.org/ns#DerivativeWorks" />
      </cc:License>
    </rdf:RDF>
  </metadata>
  <g
     inkscape:groupmode="layer"
     id="layer2"
     inkscape:label="draw"
     style="display:inline"
     transform="translate(-87.30339,-42.822586)">
    <g
       id="g2879"
       transform="translate(60.068966,0.89655174)">
      <path
         style="fill:#53676c;fill-opacity:1;fill-rule:evenodd;stroke:none"
         d="m 100.61792,150.1485 c 7.73798,-11.17267 13.67051,-23.31717 12.97734,-37.03452 -1.01553,-20.096826 3.33367,-42.296125 16.69353,-56.835728 8.38442,-9.124806 22.01573,-13.194547 34.65737,-13.450359 12.64164,-0.255812 24.23744,8.789175 18.96587,15.683838 -5.34743,6.993877 -2.95963,13.976155 -1.1859,15.386188 5.90356,4.693056 -4.76434,12.241328 -8.88441,17.983308 -4.73349,6.596879 -8.08962,14.459303 -4.59776,22.543733 6.07454,14.06391 15.10616,26.45619 23.75091,38.53705 6.46555,9.03547 0.66824,13.03432 -7.5027,19.22566 -21.54355,16.32412 -21.65445,41.40074 -10.34236,62.92634 22.59203,39.08063 54.05101,40.84508 93.19573,49.86916 11.32301,2.12792 23.74721,1.74278 30.208,12.39442 3.28526,5.41628 21.39894,23.43463 9.91349,15.75273 -25.84701,-17.28744 -31.22495,-4.01971 -39.32781,-6.19459 -12.69123,-3.40643 -22.84564,-15.97259 -34.98602,-19.0462 -6.84209,-1.73223 -21.88276,3.24858 -15.36781,16.06425 6.25271,12.29982 -3.63573,28.92365 -8.76922,42.24355 -5.18129,13.44392 9.08973,7.47363 9.58968,9.8975 0.31155,1.51047 -12.78563,3.69875 -9.72095,17.20146 1.35028,5.94918 -0.5841,11.00952 -2.38372,10.85997 -7.30444,-0.60701 0.18866,-21.98769 -14.25333,-14.24459 -7.2932,3.91027 -33.33197,10.46974 -28.2277,4.53972 3.94797,-4.58666 34.70403,-12.04144 10.06881,-9.78591 -10.3035,0.94336 -21.4324,-8.15959 -6.45316,-5.65765 11.6201,1.94088 32.3171,5.87372 33.41902,-11.69925 0.8213,-13.09784 0.85962,-22.43365 -8.18043,-33.27691 -3.51993,-4.22205 -3.83745,-11.92694 -5.25739,-18.19892 -4.62664,-15.89838 -20.55312,-13.577 -17.11064,5.33505 1.42364,7.17576 3.0554,15.26629 -3.98993,20.42518 -7.25449,5.31204 -19.86284,26.99299 -5.47018,28.78374 5.13674,0.63912 22.74511,0.11114 9.82327,3.90664 -8.58838,2.52264 -25.09997,-1.23063 -16.79807,13.01033 8.33714,14.30141 -4.78154,2.9814 -7.54762,-4.87597 -2.87808,-8.1755 -24.72434,7.64896 -36.0082,8.57579 -13.070587,1.07359 4.65838,-11.6648 12.17802,-10.793 9.17266,1.06344 10.88054,-9.23822 0.48817,-3.8595 -6.71359,3.47471 -29.140494,-4.16122 -17.66708,-6.91071 10.0886,-2.41763 28.28234,6.48536 36.23001,-1.62539 10.32235,-10.53416 8.45462,-26.37681 3.83342,-41.30442 -4.65323,-15.0311 -8.87591,-30.33799 -20.84873,-41.25782 C 91.75926,234.26013 72.99818,190.02791 100.61792,150.1485 Z"
         id="path2420"
         sodipodi:nodetypes="csasssssssccsssssssssssssssccsssssssssssss" />
      <path
         sodipodi:nodetypes="csssssss"
         style="fill:#d4aa00;fill-opacity:1;fill-rule:evenodd;stroke:none"
         d="m 187.60987,76.150124 c -4.73251,-2.941232 -6.4298,-10.252792 -2.25668,-14.552565 0.98356,-1.013409 2.63931,-1.113152 3.86636,-0.395536 2.0699,1.210538 3.28909,3.65942 5.59443,4.40791 6.03659,1.959939 8.78824,5.958329 12.45879,10.460796 1.86337,2.285693 1.49972,4.733162 -1.6719,3.736792 -3.59256,-1.128607 -6.85626,-2.952882 -10.65578,-3.330789 -2.47865,-0.246531 -5.23234,0.980324 -7.33522,-0.326608 z"
         id="path3194" />
      <path
         sodipodi:nodetypes="csccsssssssssss"
         style="fill:#1c2224;fill-opacity:1;fill-rule:evenodd;stroke:none"
         d="m 195.1031,169.60727 c -9.69657,9.74986 -21.1592,13.2089 -23.02497,34.04383 -1.236,13.80233 6.6601,29.30989 17.52749,41.98547 12.04527,15.05555 25.12152,23.26746 43.41806,27.78253 4.09835,0.86613 9.58348,1.00633 9.76696,-2.30179 0.3853,-6.94701 8.29538,-5.85516 11.96353,-8.16334 5.67083,-3.56835 -1.88795,-13.08935 2.14903,-15.45901 4.18205,-2.45481 5.80279,-7.27659 2.9221,-10.12313 -11.92859,-11.78718 1.06457,-1.45601 -8.62433,10.6745 -7.53662,9.43587 -15.72437,17.93097 -28.50481,16.12719 -16.31646,-2.30283 9.96539,-19.32224 -4e-4,-8.62316 -5.17304,5.55368 9.57105,3.69914 16.99949,-2.79396 7.42843,-6.4931 12.14359,-16.49373 9.78608,-22.4918 -7.75299,-19.72549 -24.17179,-64.25691 -41.2004,-72.70316 -19.70973,-9.7761 -1.09792,-0.10049 -13.17783,12.04583 z"
         id="path3196" />
      <path
         style="fill:#2b0022;fill-opacity:1;fill-rule:evenodd;stroke:none"
         d="m 288.21665,280.39859 c 1.73937,-1.78317 -0.13242,-3.70268 -1.30319,-4.94197 -2.1704,-2.29742 0.67267,-3.94178 2.86266,-3.15367 2.68255,0.96537 3.17773,-2.04041 2.3591,-3.93568 -1.68477,-3.90055 -5.63153,-6.00626 -9.21124,-8.30408 -16.10704,-10.33911 1.44538,2.27748 -1.04973,9.49162 -3.20656,9.27118 -17.38145,8.9351 -24.4173,4.01993 -5.53735,-3.86833 3.47829,-9.65183 5.35277,-4.24747 1.77713,5.12369 10.22607,2.42535 13.19135,-0.83332 1.72412,-1.89471 0.90954,-5.393 -0.23912,-7.68151 -3.20716,-6.38972 -6.51708,-13.0204 -11.34991,-18.35679 -1.31994,-1.45747 -3.04597,0.99786 -1.98478,2.19946 1.22676,1.38908 5.61504,8.80855 -0.98375,4.27823 -2.60798,-1.79048 -4.49119,1.69548 -3.50329,3.95786 2.18306,4.99942 1.57365,12.0517 -2.96893,12.89257 -9.74122,1.80319 -9.83959,5.19179 -8.46471,8.45145 0.72765,1.72517 8.59372,5.18814 17.18116,6.02383 5.23962,0.5099 10.83053,-1.55378 14.76086,-0.006 4.81537,1.89592 6.67107,3.32083 9.76805,0.14586 z"
         id="path3198"
         sodipodi:nodetypes="cssssssssssssssssssc" />
      <path
         sodipodi:nodetypes="csssssss"
         style="fill:#ff6600;fill-opacity:1;fill-rule:evenodd;stroke:none"
         d="m 153.57722,67.120238 c 3.08936,0.720284 6.83371,0.888689 9.47727,-0.864749 2.36904,-1.571353 4.04077,-4.680293 4.01722,-7.522993 -0.0259,-3.125218 -1.97306,-6.432234 -4.5529,-8.196341 -2.18744,-1.49578 -5.44194,-2.122319 -7.87667,-1.076208 -3.81837,1.640612 -6.91386,5.982797 -7.27843,10.122686 -0.1716,1.948639 1.22913,3.838601 2.54048,5.290153 0.96221,1.065082 2.27517,1.92154 3.67303,2.247452 z"
         id="path3200" />
      <path
         sodipodi:nodetypes="cssss"
         style="fill:#000000;fill-opacity:1;fill-rule:evenodd;stroke:none"
         d="m 151.92393,57.970604 c 0.16101,-2.368871 3.20201,-5.21728 5.57598,-5.175586 2.64433,0.04644 5.49736,2.943174 5.63629,5.58426 0.14121,2.684213 -2.75635,5.810298 -5.44426,5.816354 -3.02262,0.0068 -5.97299,-3.209367 -5.76801,-6.225028 z"
         id="path3202" />
    </g>
    <path
       style="fill:#c4c4c4;stroke:none;stroke-width:1px;stroke-linecap:butt;stroke-linejoin:miter;stroke-opacity:1;fill-opacity:1"
       d="M 168.94378,80.921433 V 211.15729 h 164.0583 V 117.07646 L 296.2639,80.338288 Z"
       id="path2449" />
    <text
       xml:space="preserve"
       transform="translate(87.30339,42.822586)"
       id="text2503"
       style="font-style:normal;font-variant:normal;font-weight:normal;font-stretch:normal;font-size:40px;line-height:1.25;font-family:Silom;-inkscape-font-specification:Silom;white-space:pre;shape-inside:url(#rect2505);fill:#000000;fill-opacity:1;stroke:none"><tspan
         x="97.191406"
         y="115.94956"
         id="tspan2957"> Build</tspan></text>
  </g>
</svg>
